<svg width="168" height="107" viewBox="0 0 168 107" fill="none" xmlns="http://www.w3.org/2000/svg">
<path opacity="0.25" d="M84.0288 107C124.075 107 156.539 99.1288 156.539 89.4191C156.539 79.7094 124.075 71.8381 84.0288 71.8381C43.9826 71.8381 11.5187 79.7094 11.5187 89.4191C11.5187 99.1288 43.9826 107 84.0288 107Z" fill="#042030"/>
<path d="M140.816 4.57451L84.0288 24.7956L27.1841 4.57451L0 45.7367L84.0288 75.6783L168 45.7367L140.816 4.57451Z" fill="#4E2999"/>
<path opacity="0.45" d="M9.90607 44.0566L79.5941 71.8381L55.6352 47.1168C55.6352 47.1168 16.2989 37.2163 9.90607 44.0566Z" fill="#240F4F"/>
<path opacity="0.45" d="M158.152 44.0566L88.4635 71.8381L112.422 47.1168C112.365 47.1168 151.701 37.2163 158.152 44.0566Z" fill="#240F4F"/>
<path d="M84.0288 75.6783L0 45.7367L0 49.6369L84.0288 79.5785L168 49.6369V45.7367L84.0288 75.6783Z" fill="#994EF8"/>
<path d="M39.2787 93.6793L49.012 67.0979L80.3428 78.2585L39.2787 93.6793Z" fill="#3B1E77"/>
<path opacity="0.45" d="M41.9856 85.9989L80.3428 78.2585L49.012 67.0979L41.9856 85.9989Z" fill="#3B1E77"/>
<path d="M84.0288 76.8784L39.2787 93.6793L42.6191 97.3395L84.0288 81.9787L125.381 97.3395L128.779 93.6793L84.0288 76.8784Z" fill="#994EF8"/>
<path d="M128.779 93.6793L118.988 67.0979L87.6572 78.2585L128.779 93.6793Z" fill="#3B1E77"/>
<path opacity="0.45" d="M126.014 85.9989L87.6572 78.2585L118.988 67.0979L126.014 85.9989Z" fill="#3B1E77"/>
<path d="M84.0288 81.9787C85.7146 81.9787 87.0812 80.5548 87.0812 78.7985C87.0812 77.0421 85.7146 75.6183 84.0288 75.6183C82.3429 75.6183 80.9763 77.0421 80.9763 78.7985C80.9763 80.5548 82.3429 81.9787 84.0288 81.9787Z" fill="white" fill-opacity="0.5"/>
<path d="M138.397 4.57451L84.0288 32.776L29.6606 4.57451C27.1841 7.99469 7.25677 42.6165 7.25677 42.6165C7.48715 42.6165 7.65993 42.6766 7.8903 42.6766C57.8814 47.8968 71.7614 64.2777 76.3689 68.2379C80.9764 72.2581 84.0864 71.8381 84.0864 71.8381C84.0864 71.8381 87.1964 72.2581 91.8039 68.2379C96.4114 64.2777 110.291 47.8968 160.283 42.6766C160.513 42.6766 160.686 42.6165 160.916 42.6165C160.801 42.6165 140.816 8.0547 138.397 4.57451Z" fill="#F5B304"/>
<path d="M160.801 42.6165C160.57 42.6165 160.398 42.6766 160.167 42.6766C110.176 47.8968 96.2962 64.2777 91.6887 68.2379C87.0812 72.2581 83.9712 71.8381 83.9712 71.8381C83.9712 71.8381 80.8612 72.2581 76.2537 68.2379C71.6462 64.2777 57.7662 47.8968 7.77511 42.6766C7.54473 42.6766 7.37196 42.6165 7.14158 42.6165C6.73843 43.2766 7.14158 43.7566 7.14158 43.7566C57.651 48.8569 71.0703 65.2978 75.6778 69.318C80.2852 73.2782 83.9136 72.9782 83.9136 72.9782C83.9136 72.9782 87.542 73.2782 92.1495 69.318C96.7569 65.3578 110.176 48.9169 160.686 43.7566C160.801 43.7566 161.204 43.2766 160.801 42.6165Z" fill="#994EF8"/>
<path d="M136.324 1.27433C108.506 -5.68604 83.9712 18.1352 83.9712 18.1352C83.9712 18.1352 59.4364 -5.68604 31.6188 1.27433C31.6188 1.27433 23.7285 13.875 12.8433 35.2962C12.8433 35.2962 67.6147 41.7165 83.9712 65.6578C100.328 41.7165 155.099 35.2962 155.099 35.2962C144.214 13.875 136.324 1.27433 136.324 1.27433Z" fill="#F5EFFB"/>
<path d="M155.099 35.2962C155.099 35.2962 100.328 41.7165 83.9712 65.6578C67.6723 41.7165 12.9009 35.2962 12.9009 35.2962C12.9009 35.2962 12.9009 37.2163 9.84848 40.9965C9.84848 40.9965 59.5516 44.7167 77.6359 66.1978C81.8979 71.2381 83.9712 70.6381 83.9712 70.6381C83.9712 70.6381 86.1022 71.2381 90.3065 66.1978C108.333 44.7167 158.094 40.9965 158.094 40.9965C155.099 37.1563 155.099 35.2962 155.099 35.2962Z" fill="#DFCBF4"/>
<path d="M133.214 3.79446C133.214 3.79446 112.422 -1.72584 83.9712 21.2554C55.5777 -1.66584 34.7289 3.79446 34.7289 3.79446L20.6761 32.236C63.4104 35.2962 83.9712 57.7974 83.9712 57.7974C83.9712 57.7974 104.532 35.2962 147.266 32.236L133.214 3.79446ZM84.0288 55.0972C84.0288 55.0972 64.7926 34.5761 24.0165 30.5559L35.8231 4.99453C35.8231 4.99453 56.2688 0.854306 84.0288 22.5755C111.789 0.854306 132.235 4.99453 132.235 4.99453L144.041 30.5559C103.265 34.5761 84.0288 55.0972 84.0288 55.0972Z" fill="#863ED5"/>
<path opacity="0.2" d="M89.2698 42.6728C96.9489 36.7725 120.946 23.7155 137.072 25.5156" stroke="#863ED5" stroke-width="3" stroke-linecap="round"/>
<path opacity="0.2" d="M89.2698 26.1157C96.085 20.5561 113.805 9.66326 130.161 10.5679" stroke="#863ED5" stroke-width="3" stroke-linecap="round"/>
<path opacity="0.2" d="M89.2698 34.5161C96.661 28.529 115.878 16.7981 133.617 17.7723" stroke="#863ED5" stroke-width="3" stroke-linecap="round"/>
<path opacity="0.2" d="M79.4789 42.6728C71.7998 36.7725 47.8025 23.7155 31.6764 25.5156" stroke="#863ED5" stroke-width="3" stroke-linecap="round"/>
<path opacity="0.2" d="M79.4789 26.1157C72.6637 20.5561 54.9441 9.66326 38.5876 10.5679" stroke="#863ED5" stroke-width="3" stroke-linecap="round"/>
<path opacity="0.2" d="M79.4789 34.5161C72.0878 28.529 52.8708 16.7981 35.132 17.7723" stroke="#863ED5" stroke-width="3" stroke-linecap="round"/>
<path d="M84.0288 18.1352C84.0288 18.1352 84.6048 16.0351 85.699 16.6352C85.699 16.6352 85.0079 50.657 86.1598 63.9177C86.4477 67.2179 89.2122 71.7181 90.3065 73.3982H88.8667L88.4635 74.7783C88.4635 74.7783 84.2016 67.2779 84.0288 64.3377C83.1649 51.137 83.6257 21.3154 84.0288 18.1352Z" fill="#54DAF5"/>
</svg>
